# xmcd CD database file
#
# Track frame offsets:
#	150
#	15565
#	29248
#	43205
#	58560
#	68245
#	84835
#	93360
#	104950
#	114368
#
# Disc length: 2213 seconds
#
# Revision: 0
# Processed by: cddbd v1.5.1PL0 Copyright (c) Steve Scherf et al.
# Submitted via: CDex 1.51
#
DISCID=8508a30a
DTITLE=José Alfredo Jimenez - Jose Alfredo y Alicia
DYEAR=1969
DGENRE=Merengue
TTITLE0=El Adios de Carrasco
TTITLE1=Y es verdad
TTITLE2=No nieges que me quisiste
TTITLE3=Lagrimas Negras
TTITLE4=La flor humana
TTITLE5=Cuesta abajo
TTITLE6=Un beso mio
TTITLE7=Te solte la rienda
TTITLE8=Las ciudades
TTITLE9=Las coplas
EXTD=YEAR: 1969
EXTT0=
EXTT1=
EXTT2=
EXTT3=
EXTT4=
EXTT5=
EXTT6=
EXTT7=
EXTT8=
EXTT9=
PLAYORDER=
